<?xml version="1.0" encoding="UTF-8"?>
<svg width="14px" height="17px" viewBox="0 0 14 17" version="1.1" xmlns="http://www.w3.org/2000/svg" xmlns:xlink="http://www.w3.org/1999/xlink">
    <!-- Generator: Sketch 53.2 (72643) - https://sketchapp.com -->
    <title>Shape</title>
    <desc>Created with Sketch.</desc>
    <g id="Page-10" stroke="none" stroke-width="1" fill="none" fill-rule="evenodd">
        <g id="006_Rooms_expanded" transform="translate(-566.000000, -134.000000)" fill="#ffffff" fill-rule="nonzero">
            <g id="Group-5" transform="translate(563.000000, 110.000000)">
                <path d="M13.3157895,24 L4.47368421,24 C3.66315789,24 3,24.6801136 3,25.5113636 L3,36.0909091 L4.47368421,36.0909091 L4.47368421,25.5113636 L13.3157895,25.5113636 L13.3157895,24 Z M15.5263158,27.0227273 L7.42105263,27.0227273 C6.61052632,27.0227273 5.94736842,27.7028409 5.94736842,28.5340909 L5.94736842,39.1136364 C5.94736842,39.9448864 6.61052632,40.625 7.42105263,40.625 L15.5263158,40.625 C16.3368421,40.625 17,39.9448864 17,39.1136364 L17,28.5340909 C17,27.7028409 16.3368421,27.0227273 15.5263158,27.0227273 Z M15.5263158,39.1136364 L7.42105263,39.1136364 L7.42105263,28.5340909 L15.5263158,28.5340909 L15.5263158,39.1136364 Z" id="Shape"></path>
            </g>
        </g>
    </g>
</svg>